<svg xmlns="http://www.w3.org/2000/svg" width="80" height="80" viewBox="0 0 80 80">
    <defs>
        <clipPath id="5kpfmfn7ja">
            <path transform="translate(.001)" style="opacity:.1;fill:red" d="M0 0h72v72H0z"/>
        </clipPath>
    </defs>
    <g data-name="그룹 115164" transform="translate(4 4)" style="clip-path:url(#5kpfmfn7ja)">
        <path data-name="패스 61652" d="M707.661 109.279a10.56 10.56 0 0 1-10.567 10.557h0a10.562 10.562 0 0 1-10.568-10.556h0v-1.8a10.565 10.565 0 0 1 10.562-10.565h0a10.563 10.563 0 0 1 10.569 10.557h0z" transform="translate(-663.727 -88.912)" style="stroke:#000;fill:none;stroke-linecap:round;stroke-linejoin:round;stroke-width:2px"/>
        <path data-name="패스 61656" d="M715.419 117.966a23.683 23.683 0 0 0-13.173-4.089c-13.125 0-24.148 11.237-27.367 26.494H703.9" transform="translate(-668.878 -81.436)" style="stroke:#000;fill:none;stroke-linecap:round;stroke-linejoin:round;stroke-width:2px"/>
        <g data-name="그룹 115163">
            <g data-name="그룹 115162">
                <path data-name="패스 61674" d="M699.885 125.669v12.579a2.163 2.163 0 0 0 2.315 1.985h19.294a2.169 2.169 0 0 0 2.316-1.985v-12.579z" transform="translate(-657.816 -76.238)" style="stroke:#4130df;fill:none;stroke-linecap:round;stroke-linejoin:round;stroke-width:2px"/>
                <g data-name="그룹 115161">
                    <path data-name="패스 61675" d="M702.187 120.319a2.317 2.317 0 0 0-2.308 2.321l.017 5.4 6.293-.023 2.645-7.716z" transform="translate(-657.819 -78.606)" style="stroke:#4130df;fill:none;stroke-linecap:round;stroke-linejoin:round;stroke-width:2px"/>
                    <path data-name="패스 61676" d="m706.9 120.306-2.645 7.716 8.49-.027 2.645-7.718z" transform="translate(-655.883 -78.615)" style="stroke:#4130df;fill:none;stroke-linecap:round;stroke-linejoin:round;stroke-width:2px"/>
                    <path data-name="패스 61677" d="M719.264 122.572a2.313 2.313 0 0 0-2.322-2.305h0l-4.155.014L710.14 128l9.142-.032z" transform="translate(-653.28 -78.619)" style="stroke:#4130df;fill:none;stroke-linecap:round;stroke-linejoin:round;stroke-width:2px"/>
                </g>
            </g>
            <path data-name="선 71" transform="translate(54.507 58.816)" style="stroke:#2c2c2c;fill:none;stroke-linecap:round;stroke-linejoin:round;stroke-width:2px" d="M7.189 0H0"/>
        </g>
    </g>
</svg>
