<svg xmlns="http://www.w3.org/2000/svg" width="80" height="80" viewBox="0 0 80 80">
    <defs>
        <clipPath id="dfuve14xqa">
            <path transform="translate(659 2827)" style="opacity:.1;fill:red" d="M0 0h72v72H0z"/>
        </clipPath>
    </defs>
    <g data-name="마스크 그룹 115643" transform="translate(-655 -2823)" style="clip-path:url(#dfuve14xqa)">
        <g data-name="그룹 116791" transform="translate(-725.466 2665.518)">
            <circle data-name="타원 6497" cx="22.002" cy="22.002" r="22.002" transform="rotate(-90 805.975 -589.49)" style="stroke:#000;fill:none;stroke-linecap:round;stroke-linejoin:round;stroke-width:2px"/>
            <path data-name="패스 63690" d="m1669.734 440.883 8.305 8.3a4.149 4.149 0 0 1 0 5.868h0a4.149 4.149 0 0 1-5.867 0l-8.305-8.305" transform="translate(-233.789 -233.789)" style="stroke:#000;fill:none;stroke-linecap:round;stroke-linejoin:round;stroke-width:2px"/>
            <path data-name="선 134" transform="translate(1433.314 212.759)" style="stroke:#000;fill:none;stroke-linecap:round;stroke-linejoin:round;stroke-width:2px" d="M0 3.421 3.421 0"/>
            <circle data-name="타원 6498" cx=".279" cy=".279" r=".279" transform="translate(1408.814 206.843)" style="stroke:#231f20;fill:none;stroke-linecap:round;stroke-linejoin:round;stroke-width:2px"/>
            <circle data-name="타원 6499" cx=".279" cy=".279" r=".279" transform="translate(1430.49 186.915)" style="stroke:#231f20;fill:none;stroke-linecap:round;stroke-linejoin:round;stroke-width:2px"/>
            <g data-name="그룹 116791">
                <path data-name="패스 63691" d="M1498.289 294.853a2.87 2.87 0 0 1 5.246 2.33 5.612 5.612 0 0 0 2.849 7.4 2.87 2.87 0 1 1-2.33 5.246 11.359 11.359 0 0 1-5.765-14.976z" transform="translate(-93.603 -109.445)" style="stroke:#4130df;fill:none;stroke-linecap:round;stroke-linejoin:round;stroke-width:2px"/>
            </g>
            <g data-name="그룹 116792">
                <path data-name="패스 63692" d="M1586.485 365.358a2.87 2.87 0 0 1-2.062-5.357 5.612 5.612 0 0 0 3.218-7.246 2.87 2.87 0 0 1 5.357-2.062 11.359 11.359 0 0 1-6.513 14.665z" transform="translate(-165.369 -156.332)" style="stroke:#4130df;fill:none;stroke-linecap:round;stroke-linejoin:round;stroke-width:2px"/>
            </g>
            <circle data-name="타원 6500" cx="2.7" cy="2.7" r="2.7" transform="rotate(-21.05 1200.977 -3721.96)" style="stroke:#000;fill:none;stroke-linecap:round;stroke-linejoin:round;stroke-width:2px"/>
        </g>
    </g>
</svg>
