<svg xmlns="http://www.w3.org/2000/svg" width="80" height="80" viewBox="0 0 80 80">
    <defs>
        <clipPath id="qj8k0jfqva">
            <path transform="translate(659 2827)" style="opacity:.1;fill:red" d="M0 0h72v72H0z"/>
        </clipPath>
    </defs>
    <g data-name="마스크 그룹 115643" transform="translate(-655 -2823)" style="clip-path:url(#qj8k0jfqva)">
        <g data-name="그룹 116790">
            <path data-name="패스 63687" d="M243.491 50.365a41.181 41.181 0 0 1 3.825 2.762l-8.2 26.044c-3.8-3.827-10.352-4.581-14.853-2.62" transform="translate(470.375 2797.181)" style="stroke:#000101;fill:none;stroke-linecap:round;stroke-linejoin:round;stroke-width:2px"/>
            <path data-name="패스 63688" d="M238.024 54.044c-6.127-4.281-12.631-4.191-19.612-2.273q-4.312 13.029-8.638 26.06c6.59-1.478 11.455-1.6 16.247.592-1.131 5.144 6.513 7.707 7.626 1.684 6.7-1.812 11.2.119 17.305 4.964 2.88-8.685 5.944-18.055 8.822-26.74a20.642 20.642 0 0 0-3.314-2.108" transform="translate(460.226 2797.282)" style="stroke:#000101;fill:none;stroke-linecap:round;stroke-linejoin:round;stroke-width:2px"/>
            <path data-name="패스 63689" d="M221.942 79.714 229.5 56.02c2.683-5.976 10.317-9.406 16.808-8.02l-7.432 26.992a15.375 15.375 0 0 0-7.541-.391" transform="translate(468.748 2795.307)" style="stroke:#4130df;fill:none;stroke-linecap:round;stroke-linejoin:round;stroke-width:2px"/>
        </g>
    </g>
</svg>
